<?xml version="1.0" encoding="UTF-8"?>
<svg version="1.1" xmlns="http://www.w3.org/2000/svg" width="32" height="21">
<path d="M0 0 C10.56 0 21.12 0 32 0 C32 6.93 32 13.86 32 21 C21.44 21 10.88 21 0 21 C0 14.07 0 7.14 0 0 Z " fill="#FCFDFE" transform="translate(0,0)"/>
<path d="M0 0 C1.4540625 0.0309375 1.4540625 0.0309375 2.9375 0.0625 C2.9375 1.0525 2.9375 2.0425 2.9375 3.0625 C4.5875 3.3925 6.2375 3.7225 7.9375 4.0625 C7.9375 4.7225 7.9375 5.3825 7.9375 6.0625 C1.6675 6.0625 -4.6025 6.0625 -11.0625 6.0625 C-11.0625 4.4125 -11.0625 2.7625 -11.0625 1.0625 C-9.928125 1.083125 -8.79375 1.10375 -7.625 1.125 C-3.70384291 1.05620777 -3.73763955 0.07627836 0 0 Z " fill="#C2E9D2" transform="translate(18.0625,6.9375)"/>
<path d="M0 0 C1.98 0 3.96 0 6 0 C6 1.65 6 3.3 6 5 C4.02 5 2.04 5 0 5 C0 3.35 0 1.7 0 0 Z " fill="#3790CB" transform="translate(7,8)"/>
<path d="M0 0 C1.98 0 3.96 0 6 0 C6 1.32 6 2.64 6 4 C3.69 4 1.38 4 -1 4 C-0.67 2.68 -0.34 1.36 0 0 Z " fill="#87B3F2" transform="translate(15,7)"/>
</svg>
